<?xml version="1.0"?>
<svg xmlns="http://www.w3.org/2000/svg" id="Layer_1" data-name="Layer 1" viewBox="0 0 512 512" width="512px" height="512px" class=""><g><title class="active-path" style="fill:#4908E0" data-old_color="#WIDTH=">Ideas target goal</title><path d="M348.266,116.7l-31.283,31.282a96.058,96.058,0,1,0,9.912,9.889l31.27-31.271,34.206,8.552a7,7,0,0,0,6.648-1.842L451.338,81a7,7,0,0,0-4.261-11.916l-37.57-3.716-3.717-37.57a7,7,0,0,0-11.916-4.261l-52.319,52.32a7,7,0,0,0-1.841,6.647Zm-9.933,103.963a84.131,84.131,0,1,1-29.868-64.162l-30.878,30.878a40.7,40.7,0,1,0,9.922,9.878L318.374,166.4A83.61,83.61,0,0,1,338.333,220.667Zm-55.373,0a28.657,28.657,0,1,1-14.04-24.618l-19.68,19.68a7,7,0,0,0,9.9,9.9l19.714-19.715A28.444,28.444,0,0,1,282.96,220.667ZM391.921,120.612,369.71,115.06l36-36,25.266,2.5Zm1.393-76.72,2.5,25.264-36,36-5.553-22.211Z" data-original="#000000" class="active-path" data-old_color="#WIDTH=" fill="#4908e0"/><path d="M162.916,321.586A85.612,85.612,0,0,1,190.3,384.592v64.693a25.966,25.966,0,0,0,25.936,25.936h32.379V495.1a6,6,0,0,0,12,0V475.221h32.379a25.966,25.966,0,0,0,25.937-25.936V384.5a87.4,87.4,0,0,1,28.1-63.572A135.77,135.77,0,0,0,390.156,218.13,134.191,134.191,0,0,0,361.645,138.6a6,6,0,1,0-9.467,7.374,122.269,122.269,0,0,1,25.982,72.463,123.772,123.772,0,0,1-39.314,93.7,99.768,99.768,0,0,0-31.722,66.449H202.107a97.489,97.489,0,0,0-31.074-65.845A123.589,123.589,0,0,1,254.6,98.114c.388,0,.775,0,1.163,0a122.417,122.417,0,0,1,72.791,24.668,6,6,0,0,0,7.2-9.6A134.341,134.341,0,0,0,255.876,86.12q-.638-.006-1.274-.006a135.59,135.59,0,0,0-91.686,235.472ZM292.991,463.221H216.233A13.952,13.952,0,0,1,202.3,449.285v-2.574h68.751a6,6,0,0,0,0-12H202.3V418.2h16.915a6,6,0,0,0,0-12H202.3v-15.61H306.928V406.2h-67.08a6,6,0,1,0,0,12h67.08v16.509H291.684a6,6,0,1,0,0,12h15.244v2.574A13.952,13.952,0,0,1,292.991,463.221Z" data-original="#000000" class="active-path" data-old_color="#WIDTH=" fill="#4908e0"/><path d="M259.347,62.772a6,6,0,0,0,6-6V16.9a6,6,0,0,0-12,0V56.772A6,6,0,0,0,259.347,62.772Z" data-original="#000000" class="active-path" data-old_color="#WIDTH=" fill="#4908e0"/><path d="M404.738,200.9a6,6,0,0,0,0,12h39.874a6,6,0,0,0,0-12Z" data-original="#000000" class="active-path" data-old_color="#WIDTH=" fill="#4908e0"/><path d="M64.612,212.9h39.874a6,6,0,1,0,0-12H64.612a6,6,0,1,0,0,12Z" data-original="#000000" class="active-path" data-old_color="#WIDTH=" fill="#4908e0"/><path d="M141.294,102.066a6,6,0,0,0,8.486-8.485L118.666,62.466a6,6,0,0,0-8.486,8.486Z" data-original="#000000" class="active-path" data-old_color="#WIDTH=" fill="#4908e0"/></g> </svg>
