<?xml version="1.0"?>
<svg xmlns="http://www.w3.org/2000/svg" xmlns:xlink="http://www.w3.org/1999/xlink" version="1.1" id="Capa_1" x="0px" y="0px" viewBox="0 0 512 512" style="enable-background:new 0 0 512 512;" xml:space="preserve" width="512px" height="512px" class=""><g><g>
	<g>
		<path d="M488.675,375.363l-0.132-0.132c-3.892-3.907-10.213-3.918-14.12-0.026c-3.907,3.892-3.919,10.213-0.026,14.12l0.132,0.132    c1.951,1.958,4.512,2.937,7.073,2.937c2.549,0,5.098-0.97,7.047-2.911C492.556,385.591,492.568,379.27,488.675,375.363z" data-original="#000000" class="active-path" data-old_color="#4908e0" fill="#4908e0"/>
	</g>
</g><g>
	<g>
		<path d="M508.58,408.661c-1.591-5.281-7.163-8.27-12.441-6.679c-5.28,1.591-8.269,7.162-6.678,12.441    c6.388,21.197,0.646,44.075-14.986,59.707c-23.359,23.36-61.367,23.36-84.725,0c-11.316-11.315-17.548-26.36-17.548-42.363    c0-16.002,6.231-31.048,17.548-42.363c16.127-16.128,39.61-21.679,61.284-14.484c5.236,1.738,10.884-1.097,12.622-6.33    c1.736-5.234-1.098-10.884-6.331-12.621c-28.231-9.37-58.765-2.506-80.21,17.882H85.035v-7.157c0-4.038-2.433-7.679-6.163-9.225    c-3.731-1.546-8.026-0.691-10.881,2.164L2.924,424.699c-3.899,3.899-3.899,10.221,0,14.121l65.066,65.066    c1.91,1.91,4.464,2.924,7.062,2.924c1.286,0,2.584-0.25,3.819-0.761c3.73-1.546,6.163-5.186,6.163-9.225v-7.157h292.086    c15.376,14.612,35.177,21.941,54.992,21.941c20.455,0,40.911-7.786,56.483-23.359C509.439,467.409,517.097,436.912,508.58,408.661    z M361.782,469.7H75.051c-3.531,0-6.633,1.832-8.408,4.597l-42.538-42.538l42.538-42.538c1.775,2.766,4.877,4.597,8.408,4.597    h286.74c-6.238,11.522-9.557,24.479-9.557,37.949C352.234,445.23,355.55,458.182,361.782,469.7z" data-original="#000000" class="active-path" data-old_color="#4908e0" fill="#4908e0"/>
	</g>
</g><g>
	<g>
		<path d="M488.515,199.635l-0.132-0.132c-3.893-3.906-10.214-3.918-14.12-0.026c-3.907,3.892-3.919,10.213-0.026,14.12l0.132,0.132    c1.951,1.958,4.512,2.937,7.073,2.937c2.549,0,5.098-0.97,7.047-2.911C492.396,209.863,492.408,203.542,488.515,199.635z" data-original="#000000" class="active-path" data-old_color="#4908e0" fill="#4908e0"/>
	</g>
</g><g>
	<g>
		<path d="M488.515,23.91l-0.132-0.132c-3.892-3.906-10.213-3.918-14.12-0.026s-3.919,10.213-0.026,14.12l0.132,0.132    c1.951,1.958,4.512,2.937,7.073,2.937c2.549,0,5.098-0.97,7.047-2.911C492.396,34.138,492.408,27.817,488.515,23.91z" data-original="#000000" class="active-path" data-old_color="#4908e0" fill="#4908e0"/>
	</g>
</g><g>
	<g>
		<path d="M440.95,38.953c-3.991-1.41-8.438-0.148-11.095,3.147l-20.571,25.51c-3.462,4.292-2.788,10.578,1.505,14.04    c4.294,3.461,10.578,2.788,14.04-1.505l2.814-3.49v35.612c0,5.514,4.47,9.984,9.984,9.984c5.513,0,9.984-4.47,9.984-9.984v-63.9    C447.611,44.135,444.941,40.362,440.95,38.953z" data-original="#000000" class="active-path" data-old_color="#4908e0" fill="#4908e0"/>
	</g>
</g><g>
	<g>
		<path d="M454.195,271.375h-16.013c10.179-10.194,19.937-23.139,19.937-35.299c0-17.107-11.494-28.601-28.601-28.601    c-15.77,0-28.601,12.83-28.601,28.601c0,5.514,4.471,9.984,9.984,9.984s9.984-4.47,9.984-9.984c0-4.76,3.872-8.633,8.633-8.633    c7.607,0,8.633,4.364,8.633,8.633c0,8.914-19.183,27.298-33.025,37.139c-3.545,2.515-5.056,7.034-3.737,11.176    c1.32,4.141,5.167,6.953,9.513,6.953h43.294c5.513,0,9.984-4.47,9.984-9.984S459.708,271.375,454.195,271.375z" data-original="#000000" class="active-path" data-old_color="#4908e0" fill="#4908e0"/>
	</g>
</g><g>
	<g>
		<path d="M456.681,415.784c0-14.314-11.645-25.96-25.959-25.96H418.4c-5.513,0-9.984,4.47-9.984,9.984s4.471,9.984,9.984,9.984    h12.322c3.304,0,5.991,2.687,5.991,5.991s-2.687,5.991-5.991,5.991H418.4c-5.513,0-9.984,4.47-9.984,9.984    s4.471,9.984,9.984,9.984h12.322c3.304,0,5.991,2.687,5.991,5.991s-2.687,5.991-5.991,5.991H418.4    c-5.513,0-9.984,4.47-9.984,9.984s4.471,9.984,9.984,9.984h12.322c14.315,0,25.959-11.646,25.959-25.959    c0-6.022-2.067-11.566-5.519-15.975C454.614,427.35,456.681,421.805,456.681,415.784z" data-original="#000000" class="active-path" data-old_color="#4908e0" fill="#4908e0"/>
	</g>
</g><g>
	<g>
		<path d="M508.42,232.933c-1.592-5.281-7.164-8.269-12.441-6.679c-5.28,1.591-8.269,7.162-6.678,12.441    c6.388,21.197,0.646,44.075-14.986,59.708c-11.315,11.315-26.36,17.548-42.363,17.548s-31.048-6.232-42.363-17.548    c-11.316-11.315-17.548-26.36-17.548-42.363c0-16.002,6.231-31.048,17.548-42.363c16.128-16.128,39.611-21.678,61.285-14.484    c5.233,1.737,10.884-1.097,12.622-6.33c1.736-5.234-1.098-10.884-6.331-12.621c-28.203-9.36-58.7-2.522-80.142,17.815H170.318    V190.9c0-4.038-2.433-7.679-6.163-9.225c-3.732-1.546-8.026-0.69-10.881,2.164l-65.066,65.066c-3.899,3.899-3.899,10.221,0,14.121    l65.066,65.065c1.91,1.91,4.464,2.924,7.062,2.924c1.286,0,2.584-0.25,3.819-0.761c3.73-1.546,6.163-5.186,6.163-9.225v-7.157    H376.89c14.916,14.219,34.383,22.046,55.064,22.046c21.337,0,41.396-8.309,56.483-23.396    C509.278,291.68,516.936,261.184,508.42,232.933z M361.584,293.905H160.334c-3.531,0-6.633,1.832-8.408,4.597l-42.538-42.538    l42.538-42.538c1.775,2.766,4.877,4.597,8.408,4.597h201.336c-6.261,11.539-9.595,24.52-9.595,38.016    C352.074,269.476,355.376,282.404,361.584,293.905z" data-original="#000000" class="active-path" data-old_color="#4908e0" fill="#4908e0"/>
	</g>
</g><g>
	<g>
		<path d="M508.42,57.207c-1.592-5.281-7.164-8.269-12.441-6.679c-5.28,1.591-8.269,7.162-6.678,12.441    c6.388,21.197,0.646,44.075-14.986,59.708c-11.315,11.315-26.36,17.548-42.363,17.548s-31.048-6.232-42.363-17.548    c-11.316-11.315-17.548-26.36-17.548-42.363c0-16.002,6.231-31.048,17.548-42.363c16.128-16.129,39.611-21.679,61.285-14.484    c5.233,1.738,10.884-1.096,12.622-6.33c1.736-5.234-1.098-10.884-6.331-12.621c-28.239-9.373-58.779-2.504-80.225,17.894h-97.174    v-7.157c0-4.038-2.433-7.679-6.163-9.225c-3.731-1.547-8.026-0.69-10.881,2.164l-65.068,65.066    c-1.872,1.872-2.924,4.412-2.924,7.06s1.052,5.188,2.924,7.06l65.067,65.067c1.91,1.91,4.464,2.924,7.062,2.924    c1.286,0,2.584-0.25,3.819-0.761c3.73-1.546,6.163-5.186,6.163-9.225v-7.157h97.204c14.906,14.168,34.338,21.966,54.981,21.966    c21.337,0,41.396-8.309,56.483-23.396C509.278,115.955,516.936,85.458,508.42,57.207z M269.784,118.259    c-3.531,0-6.633,1.832-8.408,4.598l-42.539-42.539l42.538-42.539c1.775,2.766,4.878,4.598,8.409,4.598h91.841    c-6.233,11.519-9.55,24.472-9.55,37.937c0,13.469,3.319,26.424,9.555,37.945H269.784z" data-original="#000000" class="active-path" data-old_color="#4908e0" fill="#4908e0"/>
	</g>
</g></g> </svg>
