<?xml version="1.0"?>
<svg xmlns="http://www.w3.org/2000/svg" xmlns:xlink="http://www.w3.org/1999/xlink" version="1.1" id="Capa_1" x="0px" y="0px" viewBox="0 0 368.553 368.553" style="enable-background:new 0 0 368.553 368.553;" xml:space="preserve" width="512px" height="512px"><g><g>
	<path d="M251.16,272.838l-13.315-41.635c-1.262-3.946-5.487-6.123-9.428-4.859c-3.945,1.262-6.121,5.482-4.859,9.428l6.392,19.986   l-40.587-29.209c-2.617-1.883-6.145-1.883-8.762,0l-40.593,29.213l15.229-47.64c0.981-3.069-0.108-6.424-2.707-8.33l-40.311-29.575   l15.762-0.073c4.142-0.02,7.484-3.393,7.465-7.535c-0.02-4.13-3.373-7.465-7.499-7.465c-0.012,0-0.024,0-0.036,0l-38.483,0.179   c-3.236,0.015-6.098,2.104-7.098,5.183c-1,3.077,0.087,6.45,2.696,8.364l54.28,39.825l-20.504,64.145   c-0.985,3.082,0.117,6.449,2.736,8.352c2.617,1.9,6.161,1.908,8.788,0.02l54.655-39.333l54.654,39.333   c1.309,0.941,2.845,1.412,4.381,1.412c1.547,0,3.094-0.478,4.408-1.433C251.043,279.288,252.146,275.92,251.16,272.838z" data-original="#000000" class="active-path" data-old_color="#4908e0" fill="#4908e0"/>
	<path d="M280.528,155.322l-67.325-0.312l-21.1-63.931c-1.015-3.073-3.886-5.149-7.122-5.149s-6.107,2.076-7.122,5.148   l-22.799,69.055c-1.299,3.934,0.838,8.175,4.771,9.474c3.939,1.301,8.175-0.838,9.474-4.771l15.676-47.479l15.67,47.479   c1.011,3.062,3.863,5.135,7.087,5.149l49.997,0.231l-40.313,29.575c-3.34,2.45-4.061,7.144-1.61,10.483   c1.47,2.003,3.745,3.064,6.053,3.064c1.54-0.001,3.094-0.474,4.431-1.454l58.635-43.017c2.609-1.914,3.696-5.286,2.696-8.364   S283.765,155.337,280.528,155.322z" data-original="#000000" class="active-path" data-old_color="#4908e0" fill="#4908e0"/>
	<path d="M184.276,52.193c4.143,0,7.5-3.357,7.5-7.5V7.5c0-4.143-3.357-7.5-7.5-7.5s-7.5,3.357-7.5,7.5v37.193   C176.776,48.836,180.134,52.193,184.276,52.193z" data-original="#000000" class="active-path" data-old_color="#4908e0" fill="#4908e0"/>
	<path d="M107.989,67.144c1.39,2.406,3.91,3.751,6.502,3.751c1.272,0,2.563-0.324,3.743-1.006c3.587-2.071,4.816-6.658,2.745-10.245   l-18.597-32.21c-2.071-3.588-6.66-4.815-10.245-2.745c-3.587,2.071-4.816,6.658-2.745,10.245L107.989,67.144z" data-original="#000000" class="active-path" data-old_color="#4908e0" fill="#4908e0"/>
	<path d="M67.144,107.989l-32.21-18.597c-3.59-2.07-8.175-0.843-10.245,2.745c-2.071,3.587-0.842,8.174,2.745,10.245l32.21,18.597   c1.182,0.682,2.471,1.006,3.743,1.006c2.592,0,5.113-1.345,6.502-3.751C71.96,114.647,70.73,110.061,67.144,107.989z" data-original="#000000" class="active-path" data-old_color="#4908e0" fill="#4908e0"/>
	<path d="M52.193,184.276c0-4.143-3.357-7.5-7.5-7.5H7.5c-4.143,0-7.5,3.357-7.5,7.5s3.357,7.5,7.5,7.5h37.193   C48.836,191.776,52.193,188.419,52.193,184.276z" data-original="#000000" class="active-path" data-old_color="#4908e0" fill="#4908e0"/>
	<path d="M59.644,247.573l-32.21,18.597c-3.587,2.071-4.816,6.658-2.745,10.245c1.39,2.406,3.91,3.751,6.502,3.751   c1.272,0,2.563-0.324,3.743-1.006l32.21-18.597c3.587-2.071,4.816-6.658,2.745-10.245   C67.816,246.731,63.229,245.503,59.644,247.573z" data-original="#000000" class="active-path" data-old_color="#4908e0" fill="#4908e0"/>
	<path d="M118.234,298.664c-3.59-2.071-8.175-0.843-10.245,2.745l-18.597,32.21c-2.071,3.587-0.842,8.174,2.745,10.245   c1.182,0.682,2.471,1.006,3.743,1.006c2.592,0,5.113-1.345,6.502-3.751l18.597-32.21   C123.051,305.322,121.821,300.735,118.234,298.664z" data-original="#000000" class="active-path" data-old_color="#4908e0" fill="#4908e0"/>
	<path d="M184.276,316.359c-4.143,0-7.5,3.357-7.5,7.5v37.193c0,4.143,3.357,7.5,7.5,7.5s7.5-3.357,7.5-7.5v-37.193   C191.776,319.717,188.419,316.359,184.276,316.359z" data-original="#000000" class="active-path" data-old_color="#4908e0" fill="#4908e0"/>
	<path d="M260.563,301.409c-2.072-3.588-6.659-4.815-10.245-2.745c-3.587,2.071-4.816,6.658-2.745,10.245l18.597,32.21   c1.39,2.406,3.91,3.751,6.502,3.751c1.272,0,2.563-0.324,3.743-1.006c3.587-2.071,4.816-6.658,2.745-10.245L260.563,301.409z" data-original="#000000" class="active-path" data-old_color="#4908e0" fill="#4908e0"/>
	<path d="M341.119,266.17l-32.21-18.597c-3.589-2.071-8.175-0.843-10.245,2.745c-2.071,3.587-0.842,8.174,2.745,10.245l32.21,18.597   c1.182,0.682,2.471,1.006,3.743,1.006c2.592,0,5.113-1.345,6.502-3.751C345.936,272.828,344.706,268.241,341.119,266.17z" data-original="#000000" class="active-path" data-old_color="#4908e0" fill="#4908e0"/>
	<path d="M361.053,176.776h-37.193c-4.143,0-7.5,3.357-7.5,7.5s3.357,7.5,7.5,7.5h37.193c4.143,0,7.5-3.357,7.5-7.5   S365.195,176.776,361.053,176.776z" data-original="#000000" class="active-path" data-old_color="#4908e0" fill="#4908e0"/>
	<path d="M305.166,121.985c1.272,0,2.563-0.324,3.743-1.006l32.21-18.597c3.587-2.071,4.816-6.658,2.745-10.245   c-2.072-3.588-6.659-4.814-10.245-2.745l-32.21,18.597c-3.587,2.071-4.816,6.658-2.745,10.245   C300.054,120.641,302.574,121.985,305.166,121.985z" data-original="#000000" class="active-path" data-old_color="#4908e0" fill="#4908e0"/>
	<path d="M250.318,69.889c1.182,0.682,2.471,1.006,3.743,1.006c2.592,0,5.113-1.345,6.502-3.751l18.597-32.21   c2.071-3.587,0.842-8.174-2.745-10.245c-3.589-2.071-8.176-0.843-10.245,2.745l-18.597,32.21   C245.502,63.23,246.731,67.817,250.318,69.889z" data-original="#000000" class="active-path" data-old_color="#4908e0" fill="#4908e0"/>
</g></g> </svg>
